<mxfile host="app.diagrams.net" agent="Mozilla/5.0 (Windows NT 10.0; Win64; x64) AppleWebKit/537.36 (KHTML, like Gecko) Chrome/141.0.0.0 Safari/537.36" version="28.2.7">
  <diagram name="Página-1" id="RkVA979FMhNu5bHthL22">
    <mxGraphModel dx="2066" dy="1111" grid="1" gridSize="10" guides="1" tooltips="1" connect="1" arrows="1" fold="1" page="1" pageScale="1" pageWidth="1600" pageHeight="900" background="none" math="0" shadow="1" adaptiveColors="none">
      <root>
        <mxCell id="0" />
        <mxCell id="1" parent="0" />
        <mxCell id="tyP5kD89RwJ5L9fH8OmX-1" value="Rede Social" style="swimlane;whiteSpace=wrap;html=1;labelBackgroundColor=none;rounded=0;" vertex="1" parent="1">
          <mxGeometry x="300" y="90" width="580" height="630" as="geometry" />
        </mxCell>
        <mxCell id="tyP5kD89RwJ5L9fH8OmX-8" value="Criar conta" style="ellipse;whiteSpace=wrap;html=1;" vertex="1" parent="tyP5kD89RwJ5L9fH8OmX-1">
          <mxGeometry x="20" y="295" width="120" height="40" as="geometry" />
        </mxCell>
        <mxCell id="tyP5kD89RwJ5L9fH8OmX-9" value="Criar e gerenciar comunidades" style="ellipse;whiteSpace=wrap;html=1;" vertex="1" parent="tyP5kD89RwJ5L9fH8OmX-1">
          <mxGeometry x="50" y="40" width="120" height="50" as="geometry" />
        </mxCell>
        <mxCell id="tyP5kD89RwJ5L9fH8OmX-10" value="Comprar artigos físicos ou digitais" style="ellipse;whiteSpace=wrap;html=1;" vertex="1" parent="tyP5kD89RwJ5L9fH8OmX-1">
          <mxGeometry x="180" y="80" width="120" height="50" as="geometry" />
        </mxCell>
        <mxCell id="tyP5kD89RwJ5L9fH8OmX-11" value="Doar ao artista" style="ellipse;whiteSpace=wrap;html=1;" vertex="1" parent="tyP5kD89RwJ5L9fH8OmX-1">
          <mxGeometry x="170" y="150" width="120" height="50" as="geometry" />
        </mxCell>
        <mxCell id="tyP5kD89RwJ5L9fH8OmX-12" value="Realizar upload de músicas" style="ellipse;whiteSpace=wrap;html=1;" vertex="1" parent="tyP5kD89RwJ5L9fH8OmX-1">
          <mxGeometry x="190" y="460" width="120" height="50" as="geometry" />
        </mxCell>
        <mxCell id="tyP5kD89RwJ5L9fH8OmX-13" value="Receber doações" style="ellipse;whiteSpace=wrap;html=1;" vertex="1" parent="tyP5kD89RwJ5L9fH8OmX-1">
          <mxGeometry x="130" y="380" width="120" height="50" as="geometry" />
        </mxCell>
        <mxCell id="tyP5kD89RwJ5L9fH8OmX-14" value="Disponibilizar itens para venda" style="ellipse;whiteSpace=wrap;html=1;" vertex="1" parent="tyP5kD89RwJ5L9fH8OmX-1">
          <mxGeometry x="50" y="520" width="120" height="50" as="geometry" />
        </mxCell>
        <mxCell id="tyP5kD89RwJ5L9fH8OmX-23" value="Registrar-se no sistema" style="ellipse;whiteSpace=wrap;html=1;" vertex="1" parent="tyP5kD89RwJ5L9fH8OmX-1">
          <mxGeometry x="170" y="270" width="120" height="60" as="geometry" />
        </mxCell>
        <mxCell id="tyP5kD89RwJ5L9fH8OmX-24" value="" style="endArrow=classic;html=1;" edge="1" parent="tyP5kD89RwJ5L9fH8OmX-1" source="tyP5kD89RwJ5L9fH8OmX-8" target="tyP5kD89RwJ5L9fH8OmX-23">
          <mxGeometry width="50" height="50" relative="1" as="geometry">
            <mxPoint x="220" y="340" as="sourcePoint" />
            <mxPoint x="270" y="290" as="targetPoint" />
          </mxGeometry>
        </mxCell>
        <mxCell id="tyP5kD89RwJ5L9fH8OmX-25" value="Registrar-se como músico" style="ellipse;whiteSpace=wrap;html=1;" vertex="1" parent="tyP5kD89RwJ5L9fH8OmX-1">
          <mxGeometry x="350" y="330" width="120" height="60" as="geometry" />
        </mxCell>
        <mxCell id="tyP5kD89RwJ5L9fH8OmX-26" value="Fazer login como fã" style="ellipse;whiteSpace=wrap;html=1;" vertex="1" parent="tyP5kD89RwJ5L9fH8OmX-1">
          <mxGeometry x="320" y="200" width="120" height="60" as="geometry" />
        </mxCell>
        <mxCell id="tyP5kD89RwJ5L9fH8OmX-35" value="Enviar mensagem personalizada" style="ellipse;whiteSpace=wrap;html=1;" vertex="1" parent="tyP5kD89RwJ5L9fH8OmX-1">
          <mxGeometry x="390" y="90" width="140" height="70" as="geometry" />
        </mxCell>
        <mxCell id="tyP5kD89RwJ5L9fH8OmX-38" value="include" style="endArrow=open;endSize=12;dashed=1;html=1;" edge="1" parent="tyP5kD89RwJ5L9fH8OmX-1" source="tyP5kD89RwJ5L9fH8OmX-13" target="tyP5kD89RwJ5L9fH8OmX-25">
          <mxGeometry width="160" relative="1" as="geometry">
            <mxPoint x="170" y="320" as="sourcePoint" />
            <mxPoint x="330" y="320" as="targetPoint" />
          </mxGeometry>
        </mxCell>
        <mxCell id="tyP5kD89RwJ5L9fH8OmX-39" value="extend" style="endArrow=open;endSize=12;dashed=1;html=1;" edge="1" parent="tyP5kD89RwJ5L9fH8OmX-1" source="tyP5kD89RwJ5L9fH8OmX-35" target="tyP5kD89RwJ5L9fH8OmX-11">
          <mxGeometry width="160" relative="1" as="geometry">
            <mxPoint x="315" y="160" as="sourcePoint" />
            <mxPoint x="425" y="137" as="targetPoint" />
          </mxGeometry>
        </mxCell>
        <mxCell id="tyP5kD89RwJ5L9fH8OmX-40" value="" style="endArrow=block;endFill=0;endSize=12;html=1;" edge="1" parent="tyP5kD89RwJ5L9fH8OmX-1" source="tyP5kD89RwJ5L9fH8OmX-26" target="tyP5kD89RwJ5L9fH8OmX-23">
          <mxGeometry width="160" relative="1" as="geometry">
            <mxPoint x="470" y="260" as="sourcePoint" />
            <mxPoint x="630" y="260" as="targetPoint" />
          </mxGeometry>
        </mxCell>
        <mxCell id="tyP5kD89RwJ5L9fH8OmX-41" value="" style="endArrow=block;endFill=0;endSize=12;html=1;entryX=0.923;entryY=0.779;entryDx=0;entryDy=0;entryPerimeter=0;" edge="1" parent="tyP5kD89RwJ5L9fH8OmX-1" source="tyP5kD89RwJ5L9fH8OmX-25" target="tyP5kD89RwJ5L9fH8OmX-23">
          <mxGeometry width="160" relative="1" as="geometry">
            <mxPoint x="346" y="260" as="sourcePoint" />
            <mxPoint x="284" y="290" as="targetPoint" />
          </mxGeometry>
        </mxCell>
        <mxCell id="tyP5kD89RwJ5L9fH8OmX-42" value="Monetizar os arquivos" style="ellipse;whiteSpace=wrap;html=1;" vertex="1" parent="tyP5kD89RwJ5L9fH8OmX-1">
          <mxGeometry x="420" y="430" width="120" height="60" as="geometry" />
        </mxCell>
        <mxCell id="tyP5kD89RwJ5L9fH8OmX-43" value="extend" style="endArrow=open;endSize=12;dashed=1;html=1;exitX=0.025;exitY=0.569;exitDx=0;exitDy=0;exitPerimeter=0;" edge="1" parent="tyP5kD89RwJ5L9fH8OmX-1" source="tyP5kD89RwJ5L9fH8OmX-42" target="tyP5kD89RwJ5L9fH8OmX-12">
          <mxGeometry width="160" relative="1" as="geometry">
            <mxPoint x="403" y="466" as="sourcePoint" />
            <mxPoint x="290" y="490" as="targetPoint" />
          </mxGeometry>
        </mxCell>
        <mxCell id="tyP5kD89RwJ5L9fH8OmX-2" value="Usuário" style="shape=umlActor;verticalLabelPosition=bottom;verticalAlign=top;html=1;outlineConnect=0;labelBackgroundColor=none;rounded=0;" vertex="1" parent="1">
          <mxGeometry x="70" y="370" width="30" height="60" as="geometry" />
        </mxCell>
        <mxCell id="tyP5kD89RwJ5L9fH8OmX-3" value="Fã" style="shape=umlActor;verticalLabelPosition=bottom;verticalAlign=top;html=1;outlineConnect=0;labelBackgroundColor=none;rounded=0;" vertex="1" parent="1">
          <mxGeometry x="190" y="200" width="30" height="60" as="geometry" />
        </mxCell>
        <mxCell id="tyP5kD89RwJ5L9fH8OmX-4" value="Músico" style="shape=umlActor;verticalLabelPosition=bottom;verticalAlign=top;html=1;outlineConnect=0;labelBackgroundColor=none;rounded=0;" vertex="1" parent="1">
          <mxGeometry x="190" y="530" width="30" height="60" as="geometry" />
        </mxCell>
        <mxCell id="tyP5kD89RwJ5L9fH8OmX-7" value="" style="endArrow=classic;html=1;entryX=0;entryY=0.5;entryDx=0;entryDy=0;" edge="1" parent="1" source="tyP5kD89RwJ5L9fH8OmX-2" target="tyP5kD89RwJ5L9fH8OmX-8">
          <mxGeometry width="50" height="50" relative="1" as="geometry">
            <mxPoint x="120" y="404.71" as="sourcePoint" />
            <mxPoint x="300" y="405" as="targetPoint" />
          </mxGeometry>
        </mxCell>
        <mxCell id="tyP5kD89RwJ5L9fH8OmX-15" value="" style="endArrow=classic;html=1;entryX=0;entryY=0.5;entryDx=0;entryDy=0;" edge="1" parent="1" source="tyP5kD89RwJ5L9fH8OmX-4" target="tyP5kD89RwJ5L9fH8OmX-13">
          <mxGeometry width="50" height="50" relative="1" as="geometry">
            <mxPoint x="270" y="550" as="sourcePoint" />
            <mxPoint x="320" y="500" as="targetPoint" />
          </mxGeometry>
        </mxCell>
        <mxCell id="tyP5kD89RwJ5L9fH8OmX-17" value="" style="endArrow=classic;html=1;" edge="1" parent="1" source="tyP5kD89RwJ5L9fH8OmX-4" target="tyP5kD89RwJ5L9fH8OmX-12">
          <mxGeometry width="50" height="50" relative="1" as="geometry">
            <mxPoint x="240" y="565" as="sourcePoint" />
            <mxPoint x="440" y="505" as="targetPoint" />
          </mxGeometry>
        </mxCell>
        <mxCell id="tyP5kD89RwJ5L9fH8OmX-18" value="" style="endArrow=classic;html=1;entryX=0.051;entryY=0.334;entryDx=0;entryDy=0;entryPerimeter=0;" edge="1" parent="1" source="tyP5kD89RwJ5L9fH8OmX-4" target="tyP5kD89RwJ5L9fH8OmX-14">
          <mxGeometry width="50" height="50" relative="1" as="geometry">
            <mxPoint x="250" y="575" as="sourcePoint" />
            <mxPoint x="500" y="583" as="targetPoint" />
          </mxGeometry>
        </mxCell>
        <mxCell id="tyP5kD89RwJ5L9fH8OmX-20" value="" style="endArrow=classic;html=1;" edge="1" parent="1" source="tyP5kD89RwJ5L9fH8OmX-3" target="tyP5kD89RwJ5L9fH8OmX-9">
          <mxGeometry width="50" height="50" relative="1" as="geometry">
            <mxPoint x="250" y="220" as="sourcePoint" />
            <mxPoint x="300" y="170" as="targetPoint" />
          </mxGeometry>
        </mxCell>
        <mxCell id="tyP5kD89RwJ5L9fH8OmX-21" value="" style="endArrow=classic;html=1;" edge="1" parent="1" source="tyP5kD89RwJ5L9fH8OmX-3" target="tyP5kD89RwJ5L9fH8OmX-10">
          <mxGeometry width="50" height="50" relative="1" as="geometry">
            <mxPoint x="240" y="234" as="sourcePoint" />
            <mxPoint x="376" y="182" as="targetPoint" />
          </mxGeometry>
        </mxCell>
        <mxCell id="tyP5kD89RwJ5L9fH8OmX-22" value="" style="endArrow=classic;html=1;" edge="1" parent="1" source="tyP5kD89RwJ5L9fH8OmX-3" target="tyP5kD89RwJ5L9fH8OmX-11">
          <mxGeometry width="50" height="50" relative="1" as="geometry">
            <mxPoint x="240" y="250" as="sourcePoint" />
            <mxPoint x="493" y="212" as="targetPoint" />
          </mxGeometry>
        </mxCell>
        <mxCell id="tyP5kD89RwJ5L9fH8OmX-32" value="" style="endArrow=block;endFill=0;endSize=12;html=1;" edge="1" parent="1">
          <mxGeometry width="160" relative="1" as="geometry">
            <mxPoint x="180" y="260" as="sourcePoint" />
            <mxPoint x="100" y="360" as="targetPoint" />
          </mxGeometry>
        </mxCell>
        <mxCell id="tyP5kD89RwJ5L9fH8OmX-33" value="" style="endArrow=block;endFill=0;endSize=12;html=1;" edge="1" parent="1">
          <mxGeometry width="160" relative="1" as="geometry">
            <mxPoint x="180" y="540" as="sourcePoint" />
            <mxPoint x="100" y="460" as="targetPoint" />
          </mxGeometry>
        </mxCell>
      </root>
    </mxGraphModel>
  </diagram>
</mxfile>
